<?xml version="1.0" encoding="utf-8"?>
<!-- Generator: Adobe Illustrator 28.2.0, SVG Export Plug-In . SVG Version: 6.00 Build 0)  -->
<svg version="1.1" id="Layer_1" xmlns="http://www.w3.org/2000/svg" xmlns:xlink="http://www.w3.org/1999/xlink" x="0px" y="0px"
	 viewBox="0 0 475.8 31.3" style="enable-background:new 0 0 475.8 31.3;" xml:space="preserve">
<style type="text/css">
	.st0{fill:#650913;}
	.st1{fill:#A41E22;}
	.st2{fill:#CB2127;}
	.st3{fill:#EF3D2C;}
	.st4{fill:#F26A4D;}
	.st5{fill:#F69174;}
	.st6{fill:#FABAA1;}
	.st7{fill:#4F0097;}
	.st8{fill:#790096;}
	.st9{fill:#B00A8C;}
	.st10{fill:#C7245A;}
	.st11{fill:#E85338;}
	.st12{fill:#FF7F1F;}
	.st13{fill:#FF9E00;}
	.st14{fill:#FEC700;}
	.st15{fill:#FEDD93;}
	.st16{fill:#6BC8B1;}
	.st17{fill:#39B5B5;}
	.st18{fill:#4292C6;}
	.st19{fill:#EAECCC;}
</style>
<path id="Path_2314" class="st0" d="M438.9,8.5v14.3c0,4.7-4.3,8.5-9.7,8.5h-13.8c-5.3,0-9.7-3.8-9.7-8.5V8.5c0-4.7,4.3-8.5,9.6-8.5
	h13.8C434.6,0,438.9,3.8,438.9,8.5"/>
<path id="Path_2315" class="st1" d="M402,8.5v14.3c0,4.7-4.3,8.5-9.7,8.5h-13.8c-5.3,0-9.7-3.8-9.7-8.5V8.5c0-4.7,4.3-8.5,9.7-8.5
	h13.8C397.7,0,402,3.8,402,8.5"/>
<path id="Path_2316" class="st2" d="M365.1,8.5v14.3c0,4.7-4.3,8.5-9.7,8.5h-13.8c-5.3,0-9.7-3.8-9.7-8.5V8.5c0-4.7,4.3-8.5,9.7-8.5
	h13.8C360.8,0,365.1,3.8,365.1,8.5"/>
<path id="Path_2317" class="st3" d="M328.3,8.5v14.3c0,4.7-4.3,8.5-9.7,8.5h-13.8c-5.3,0-9.7-3.8-9.7-8.5V8.5c0-4.7,4.3-8.5,9.7-8.5
	h13.8C323.9,0,328.3,3.8,328.3,8.5"/>
<path id="Path_2318" class="st4" d="M291.4,8.5v14.3c0,4.7-4.3,8.5-9.7,8.5h-13.8c-5.3,0-9.6-3.8-9.6-8.5V8.5c0-4.7,4.3-8.5,9.6-8.5
	h13.8C287,0,291.4,3.8,291.4,8.5"/>
<path id="Path_2319" class="st5" d="M254.5,8.5v14.3c0,4.7-4.3,8.5-9.7,8.5H231c-5.3,0-9.6-3.8-9.6-8.5V8.5c0-4.7,4.3-8.5,9.6-8.5
	h13.8C250.2,0,254.5,3.8,254.5,8.5"/>
<path id="Path_2320" class="st6" d="M217.6,8.5v14.3c0,4.7-4.3,8.5-9.7,8.5h-13.8c-5.3,0-9.7-3.8-9.7-8.5V8.5c0-4.7,4.3-8.5,9.7-8.5
	H208C213.3,0,217.6,3.8,217.6,8.5"/>
<path id="Path_2314-2" class="st7" d="M475.8,8.5v14.3c0,4.7-4.3,8.5-9.7,8.5h-13.8c-5.3,0-9.7-3.8-9.7-8.5V8.5
	c0-4.7,4.3-8.5,9.6-8.5H466C471.4,0,475.8,3.8,475.8,8.5"/>
<path id="Path_2315-2" class="st8" d="M438.9,8.5v14.3c0,4.7-4.3,8.5-9.7,8.5h-13.8c-5.3,0-9.7-3.8-9.7-8.5V8.5
	c0-4.7,4.3-8.5,9.7-8.5h13.8C434.6,0,438.9,3.8,438.9,8.5"/>
<path id="Path_2316-2" class="st9" d="M402,8.5v14.3c0,4.7-4.3,8.5-9.7,8.5h-13.8c-5.3,0-9.7-3.8-9.7-8.5V8.5c0-4.7,4.3-8.5,9.7-8.5
	h13.8C397.7,0,402,3.8,402,8.5"/>
<path id="Path_2317-2" class="st10" d="M365.1,8.5v14.3c0,4.7-4.3,8.5-9.7,8.5h-13.8c-5.3,0-9.7-3.8-9.7-8.5V8.5
	c0-4.7,4.3-8.5,9.7-8.5h13.8C360.8,0,365.1,3.8,365.1,8.5"/>
<path id="Path_2318-2" class="st11" d="M328.3,8.5v14.3c0,4.7-4.3,8.5-9.7,8.5h-13.8c-5.3,0-9.6-3.8-9.6-8.5V8.5
	c0-4.7,4.3-8.5,9.6-8.5h13.8C323.9,0,328.3,3.8,328.3,8.5"/>
<path id="Path_2319-2" class="st12" d="M291.4,8.5v14.3c0,4.7-4.3,8.5-9.7,8.5h-13.8c-5.3,0-9.6-3.8-9.6-8.5V8.5
	c0-4.7,4.3-8.5,9.6-8.5h13.8C287,0,291.4,3.8,291.4,8.5"/>
<path id="Path_2320-2" class="st13" d="M254.5,8.5v14.3c0,4.7-4.3,8.5-9.7,8.5H231c-5.3,0-9.7-3.8-9.7-8.5V8.5
	c0-4.7,4.3-8.5,9.7-8.5h13.8C250.2,0,254.5,3.8,254.5,8.5"/>
<path id="Path_2321" class="st14" d="M217.6,8.5v14.3c0,4.7-4.3,8.5-9.7,8.5h-13.8c-5.3,0-9.7-3.8-9.7-8.5V8.5
	c0-4.7,4.3-8.5,9.7-8.5H208C213.3,0,217.6,3.8,217.6,8.5"/>
<path id="Path_2322" class="st15" d="M180.7,8.5v14.3c0,4.7-4.3,8.5-9.7,8.5h-13.8c-5.3,0-9.7-3.8-9.7-8.5V8.5
	c0-4.7,4.3-8.5,9.7-8.5H171C176.4,0,180.7,3.8,180.7,8.5"/>
<path id="Path_2324" class="st16" d="M107,8.5v14.3c0,4.7-4.3,8.5-9.7,8.5H83.5c-5.3,0-9.7-3.8-9.7-8.5V8.5c0-4.7,4.3-8.5,9.7-8.5
	h13.8C102.6,0,107,3.8,107,8.5"/>
<path id="Path_2325" class="st17" d="M70.1,8.5v14.3c0,4.7-4.3,8.5-9.7,8.5H46.6c-5.3,0-9.7-3.8-9.7-8.5V8.5c0-4.7,4.3-8.5,9.7-8.5
	h13.8C65.8,0,70.1,3.8,70.1,8.5"/>
<path id="Path_2326" class="st18" d="M33.2,8.5v14.3c0,4.7-4.3,8.5-9.7,8.5H9.7c-5.3,0-9.7-3.8-9.7-8.5V8.5C0,3.8,4.3,0,9.7,0h13.8
	C28.9,0,33.2,3.8,33.2,8.5"/>
<path id="Path_2322-2" class="st19" d="M143.9,8.5v14.3c0,4.7-4.3,8.5-9.7,8.5h-13.8c-5.3,0-9.7-3.8-9.7-8.5V8.5
	c0-4.7,4.3-8.5,9.7-8.5h13.8C139.5,0,143.9,3.8,143.9,8.5"/>
</svg>
