<?xml version="1.0" encoding="utf-8"?>
<!-- Generator: Adobe Illustrator 28.1.0, SVG Export Plug-In . SVG Version: 6.00 Build 0)  -->
<svg version="1.1" id="Layer_1" xmlns="http://www.w3.org/2000/svg" xmlns:xlink="http://www.w3.org/1999/xlink" x="0px" y="0px"
	 viewBox="0 0 511.1 55" style="enable-background:new 0 0 511.1 55;" xml:space="preserve">
<style type="text/css">
	.st0{fill:#650913;}
	.st1{fill:#A41E22;}
	.st2{fill:#CB2127;}
	.st3{fill:#EF3D2C;}
	.st4{fill:#F26A4D;}
	.st5{fill:#F69174;}
	.st6{fill:#FABAA1;}
	.st7{font-family:'SourceSansPro-Regular';}
	.st8{font-size:16px;}
	.st9{fill:#4F0097;}
	.st10{fill:#790096;}
	.st11{fill:#B00A8C;}
	.st12{fill:#C7245A;}
	.st13{fill:#E85338;}
	.st14{fill:#FF7F1F;}
	.st15{fill:#FF9E00;}
	.st16{fill:#FEC700;}
	.st17{fill:#FEDD93;}
	.st18{fill:#6BC8B1;}
	.st19{fill:#39B5B5;}
	.st20{fill:#4292C6;}
	.st21{fill:#EAECCC;}
</style>
<path id="Path_2314" class="st0" d="M455.9,8.5v14.3c0,4.7-4.3,8.5-9.7,8.5h-13.8c-5.3,0-9.7-3.8-9.7-8.5V8.5c0-4.7,4.3-8.5,9.6-8.5
	h13.8C451.6,0,455.9,3.8,455.9,8.5"/>
<path id="Path_2315" class="st1" d="M419,8.5v14.3c0,4.7-4.3,8.5-9.7,8.5h-13.8c-5.3,0-9.7-3.8-9.7-8.5V8.5c0-4.7,4.3-8.5,9.7-8.5
	h13.8C414.7,0,419,3.8,419,8.5"/>
<path id="Path_2316" class="st2" d="M382.1,8.5v14.3c0,4.7-4.3,8.5-9.7,8.5h-13.8c-5.3,0-9.7-3.8-9.7-8.5V8.5c0-4.7,4.3-8.5,9.7-8.5
	h13.8C377.8,0,382.1,3.8,382.1,8.5"/>
<path id="Path_2317" class="st3" d="M345.3,8.5v14.3c0,4.7-4.3,8.5-9.7,8.5h-13.8c-5.3,0-9.7-3.8-9.7-8.5V8.5c0-4.7,4.3-8.5,9.7-8.5
	h13.8C340.9,0,345.3,3.8,345.3,8.5"/>
<path id="Path_2318" class="st4" d="M308.4,8.5v14.3c0,4.7-4.3,8.5-9.7,8.5h-13.8c-5.3,0-9.6-3.8-9.6-8.5V8.5c0-4.7,4.3-8.5,9.6-8.5
	h13.8C304,0,308.4,3.8,308.4,8.5"/>
<path id="Path_2319" class="st5" d="M271.5,8.5v14.3c0,4.7-4.3,8.5-9.7,8.5H248c-5.3,0-9.6-3.8-9.6-8.5V8.5c0-4.7,4.3-8.5,9.6-8.5
	h13.8C267.2,0,271.5,3.8,271.5,8.5"/>
<path id="Path_2320" class="st6" d="M234.6,8.5v14.3c0,4.7-4.3,8.5-9.7,8.5h-13.8c-5.3,0-9.7-3.8-9.7-8.5V8.5c0-4.7,4.3-8.5,9.7-8.5
	H225C230.3,0,234.6,3.8,234.6,8.5"/>
<text transform="matrix(1 0 0 1 45.34 48.58)" class="st7 st8">0</text>
<text transform="matrix(1 0 0 1 0 48.58)" class="st7 st8">-0.4</text>
<text transform="matrix(1 0 0 1 113.13 48.58)" class="st7 st8">0.8</text>
<text transform="matrix(1 0 0 1 76.25 48.58)" class="st7 st8">0.4</text>
<path id="Path_2314-2" class="st9" d="M492.8,8.5v14.3c0,4.7-4.3,8.5-9.7,8.5h-13.8c-5.3,0-9.7-3.8-9.7-8.5V8.5
	c0-4.7,4.3-8.5,9.6-8.5h13.8C488.4,0,492.8,3.8,492.8,8.5"/>
<path id="Path_2315-2" class="st10" d="M455.9,8.5v14.3c0,4.7-4.3,8.5-9.7,8.5h-13.8c-5.3,0-9.7-3.8-9.7-8.5V8.5
	c0-4.7,4.3-8.5,9.7-8.5h13.8C451.6,0,455.9,3.8,455.9,8.5"/>
<path id="Path_2316-2" class="st11" d="M419,8.5v14.3c0,4.7-4.3,8.5-9.7,8.5h-13.8c-5.3,0-9.7-3.8-9.7-8.5V8.5
	c0-4.7,4.3-8.5,9.7-8.5h13.8C414.7,0,419,3.8,419,8.5"/>
<path id="Path_2317-2" class="st12" d="M382.1,8.5v14.3c0,4.7-4.3,8.5-9.7,8.5h-13.8c-5.3,0-9.7-3.8-9.7-8.5V8.5
	c0-4.7,4.3-8.5,9.7-8.5h13.8C377.8,0,382.1,3.8,382.1,8.5"/>
<path id="Path_2318-2" class="st13" d="M345.3,8.5v14.3c0,4.7-4.3,8.5-9.7,8.5h-13.8c-5.3,0-9.6-3.8-9.6-8.5V8.5
	c0-4.7,4.3-8.5,9.6-8.5h13.8C340.9,0,345.3,3.8,345.3,8.5"/>
<path id="Path_2319-2" class="st14" d="M308.4,8.5v14.3c0,4.7-4.3,8.5-9.7,8.5h-13.8c-5.3,0-9.6-3.8-9.6-8.5V8.5
	c0-4.7,4.3-8.5,9.6-8.5h13.8C304,0,308.4,3.8,308.4,8.5"/>
<path id="Path_2320-2" class="st15" d="M271.5,8.5v14.3c0,4.7-4.3,8.5-9.7,8.5H248c-5.3,0-9.7-3.8-9.7-8.5V8.5
	c0-4.7,4.3-8.5,9.7-8.5h13.8C267.2,0,271.5,3.8,271.5,8.5"/>
<path id="Path_2321" class="st16" d="M234.6,8.5v14.3c0,4.7-4.3,8.5-9.7,8.5h-13.8c-5.3,0-9.7-3.8-9.7-8.5V8.5
	c0-4.7,4.3-8.5,9.7-8.5H225C230.3,0,234.6,3.8,234.6,8.5"/>
<text transform="matrix(1 0 0 1 186.9 48.58)" class="st7 st8">1.6</text>
<text transform="matrix(1 0 0 1 229.75 48.58)" class="st7 st8">2</text>
<text transform="matrix(1 0 0 1 260.66 48.58)" class="st7 st8">2.4</text>
<text transform="matrix(1 0 0 1 150.01 48.58)" class="st7 st8">1.2</text>
<text transform="matrix(1 0 0 1 371.31 48.58)" class="st7 st8">3.6</text>
<text transform="matrix(1 0 0 1 334.42 48.58)" class="st7 st8">3.2</text>
<text transform="matrix(1 0 0 1 297.54 48.58)" class="st7 st8">2.8</text>
<text transform="matrix(1 0 0 1 416.16 48.58)" class="st7 st8">4</text>
<text transform="matrix(1 0 0 1 446.07 48.58)" class="st7 st8">4.4</text>
<text transform="matrix(1 0 0 1 476.73 48.58)" class="st7 st8">4.8°C</text>
<path id="Path_2322" class="st17" d="M197.7,8.5v14.3c0,4.7-4.3,8.5-9.7,8.5h-13.8c-5.3,0-9.7-3.8-9.7-8.5V8.5
	c0-4.7,4.3-8.5,9.7-8.5h13.8C193.4,0,197.7,3.8,197.7,8.5"/>
<path id="Path_2324" class="st18" d="M124,8.5v14.3c0,4.7-4.3,8.5-9.7,8.5h-13.8c-5.3,0-9.7-3.8-9.7-8.5V8.5c0-4.7,4.3-8.5,9.7-8.5
	h13.8C119.6,0,124,3.8,124,8.5"/>
<path id="Path_2325" class="st19" d="M87.1,8.5v14.3c0,4.7-4.3,8.5-9.7,8.5H63.6c-5.3,0-9.7-3.8-9.7-8.5V8.5c0-4.7,4.3-8.5,9.7-8.5
	h13.8C82.8,0,87.1,3.8,87.1,8.5"/>
<path id="Path_2326" class="st20" d="M50.2,8.5v14.3c0,4.7-4.3,8.5-9.7,8.5H26.7c-5.3,0-9.7-3.8-9.7-8.5V8.5c0-4.7,4.3-8.5,9.7-8.5
	h13.8C45.9,0,50.2,3.8,50.2,8.5"/>
<path id="Path_2322-2" class="st21" d="M160.9,8.5v14.3c0,4.7-4.3,8.5-9.7,8.5h-13.8c-5.3,0-9.7-3.8-9.7-8.5V8.5
	c0-4.7,4.3-8.5,9.7-8.5h13.8C156.5,0,160.9,3.8,160.9,8.5"/>
</svg>
