<?xml version="1.0" encoding="UTF-8"?>
<svg id="Layer_1" data-name="Layer 1" xmlns="http://www.w3.org/2000/svg" viewBox="0 0 511.09 54.98">
  <defs>
    <style>
      .cls-1 {
        font-family: SourceSansPro-Regular, 'Source Sans Pro';
        font-size: 16px;
        isolation: isolate;
      }

      .cls-2 {
        fill: #fabaa1;
      }

      .cls-2, .cls-3, .cls-4, .cls-5, .cls-6, .cls-7, .cls-8, .cls-9, .cls-10, .cls-11, .cls-12, .cls-13, .cls-14 {
        stroke-width: 0px;
      }

      .cls-3 {
        fill: #650913;
      }

      .cls-4 {
        fill: #a41e22;
      }

      .cls-5 {
        fill: #2272b5;
      }

      .cls-6 {
        fill: #213468;
      }

      .cls-7 {
        fill: #cb2127;
      }

      .cls-8 {
        fill: #deeaf7;
      }

      .cls-9 {
        fill: #6badd6;
      }

      .cls-10 {
        fill: #fde0d3;
      }

      .cls-11 {
        fill: #fff5f0;
      }

      .cls-12 {
        fill: #ef3d2c;
      }

      .cls-13 {
        fill: #f26a4d;
      }

      .cls-14 {
        fill: #f69174;
      }
    </style>
  </defs>
  <path id="Path_2314" data-name="Path 2314" class="cls-3" d="m455.91,8.47v14.3c0,4.68-4.32,8.47-9.66,8.47h-13.82c-5.33,0-9.66-3.79-9.66-8.47v-14.3c0-4.68,4.32-8.47,9.65-8.47h13.82c5.33,0,9.66,3.79,9.66,8.47"/>
  <path id="Path_2315" data-name="Path 2315" class="cls-4" d="m419.03,8.47v14.3c0,4.68-4.32,8.47-9.66,8.47h-13.82c-5.33,0-9.66-3.79-9.66-8.47v-14.3c0-4.68,4.32-8.47,9.66-8.47h13.82c5.33,0,9.66,3.79,9.66,8.47"/>
  <path id="Path_2316" data-name="Path 2316" class="cls-7" d="m382.15,8.47v14.3c0,4.68-4.32,8.47-9.66,8.47h-13.82c-5.33,0-9.66-3.79-9.66-8.47v-14.3c0-4.68,4.32-8.47,9.66-8.47h13.82c5.33,0,9.66,3.79,9.66,8.47"/>
  <path id="Path_2317" data-name="Path 2317" class="cls-12" d="m345.26,8.47v14.3c0,4.68-4.32,8.47-9.66,8.47h-13.82c-5.33,0-9.66-3.79-9.66-8.47v-14.3c0-4.68,4.32-8.47,9.66-8.47h13.82c5.33,0,9.66,3.79,9.66,8.47"/>
  <path id="Path_2318" data-name="Path 2318" class="cls-13" d="m308.38,8.47v14.3c0,4.68-4.32,8.47-9.66,8.47h-13.82c-5.33,0-9.65-3.79-9.65-8.47v-14.3c0-4.68,4.32-8.47,9.65-8.47h13.82c5.33,0,9.66,3.79,9.66,8.47"/>
  <path id="Path_2319" data-name="Path 2319" class="cls-14" d="m271.5,8.47v14.3c0,4.68-4.32,8.47-9.66,8.47h-13.82c-5.33,0-9.65-3.79-9.65-8.47v-14.3c0-4.68,4.32-8.47,9.65-8.47h13.82c5.33,0,9.66,3.79,9.66,8.47"/>
  <path id="Path_2320" data-name="Path 2320" class="cls-2" d="m234.62,8.47v14.3c0,4.68-4.32,8.47-9.66,8.47h-13.82c-5.33,0-9.66-3.79-9.66-8.47v-14.3c0-4.68,4.32-8.47,9.66-8.47h13.82c5.33,0,9.66,3.79,9.66,8.47"/>
  <text class="cls-1" transform="translate(45.34 48.58)"><tspan x="0" y="0">0</tspan></text>
  <text class="cls-1" transform="translate(0 48.58)"><tspan x="0" y="0">-0.4</tspan></text>
  <text class="cls-1" transform="translate(113.13 48.58)"><tspan x="0" y="0">0.8</tspan></text>
  <text class="cls-1" transform="translate(76.25 48.58)"><tspan x="0" y="0">0.4</tspan></text>
  <path id="Path_2314-2" data-name="Path 2314" class="cls-3" d="m492.79,8.47v14.3c0,4.68-4.32,8.47-9.66,8.47h-13.82c-5.33,0-9.66-3.79-9.66-8.47v-14.3c0-4.68,4.32-8.47,9.65-8.47h13.82c5.33,0,9.66,3.79,9.66,8.47"/>
  <path id="Path_2315-2" data-name="Path 2315" class="cls-4" d="m455.91,8.47v14.3c0,4.68-4.32,8.47-9.66,8.47h-13.82c-5.33,0-9.66-3.79-9.66-8.47v-14.3c0-4.68,4.32-8.47,9.66-8.47h13.82c5.33,0,9.66,3.79,9.66,8.47"/>
  <path id="Path_2316-2" data-name="Path 2316" class="cls-7" d="m419.03,8.47v14.3c0,4.68-4.32,8.47-9.66,8.47h-13.82c-5.33,0-9.66-3.79-9.66-8.47v-14.3c0-4.68,4.32-8.47,9.66-8.47h13.82c5.33,0,9.66,3.79,9.66,8.47"/>
  <path id="Path_2317-2" data-name="Path 2317" class="cls-12" d="m382.14,8.47v14.3c0,4.68-4.32,8.47-9.66,8.47h-13.82c-5.33,0-9.66-3.79-9.66-8.47v-14.3c0-4.68,4.32-8.47,9.66-8.47h13.82c5.33,0,9.66,3.79,9.66,8.47"/>
  <path id="Path_2318-2" data-name="Path 2318" class="cls-13" d="m345.26,8.47v14.3c0,4.68-4.32,8.47-9.66,8.47h-13.82c-5.33,0-9.65-3.79-9.65-8.47v-14.3c0-4.68,4.32-8.47,9.65-8.47h13.82c5.33,0,9.66,3.79,9.66,8.47"/>
  <path id="Path_2319-2" data-name="Path 2319" class="cls-14" d="m308.38,8.47v14.3c0,4.68-4.32,8.47-9.66,8.47h-13.82c-5.33,0-9.65-3.79-9.65-8.47v-14.3c0-4.68,4.32-8.47,9.65-8.47h13.82c5.33,0,9.66,3.79,9.66,8.47"/>
  <path id="Path_2320-2" data-name="Path 2320" class="cls-2" d="m271.5,8.47v14.3c0,4.68-4.32,8.47-9.66,8.47h-13.82c-5.33,0-9.66-3.79-9.66-8.47v-14.3c0-4.68,4.32-8.47,9.66-8.47h13.82c5.33,0,9.66,3.79,9.66,8.47"/>
  <path id="Path_2321" data-name="Path 2321" class="cls-10" d="m234.62,8.47v14.3c0,4.68-4.32,8.47-9.66,8.47h-13.82c-5.33,0-9.66-3.79-9.66-8.47v-14.3c0-4.68,4.33-8.47,9.66-8.47h13.82c5.33,0,9.66,3.79,9.66,8.47"/>
  <text class="cls-1" transform="translate(186.9 48.58)"><tspan x="0" y="0">1.6</tspan></text>
  <text class="cls-1" transform="translate(229.75 48.58)"><tspan x="0" y="0">2</tspan></text>
  <text class="cls-1" transform="translate(260.66 48.58)"><tspan x="0" y="0">2.4</tspan></text>
  <text class="cls-1" transform="translate(150.01 48.58)"><tspan x="0" y="0">1.2</tspan></text>
  <text class="cls-1" transform="translate(371.31 48.58)"><tspan x="0" y="0">3.6</tspan></text>
  <text class="cls-1" transform="translate(334.42 48.58)"><tspan x="0" y="0">3.2</tspan></text>
  <text class="cls-1" transform="translate(297.54 48.58)"><tspan x="0" y="0">2.8</tspan></text>
  <text class="cls-1" transform="translate(416.16 48.58)"><tspan x="0" y="0">4</tspan></text>
  <text class="cls-1" transform="translate(446.07 48.58)"><tspan x="0" y="0">4.4</tspan></text>
  <text class="cls-1" transform="translate(476.73 48.58)"><tspan x="0" y="0">4.8°C</tspan></text>
  <path id="Path_2322" data-name="Path 2322" class="cls-11" d="m197.74,8.47v14.3c0,4.68-4.32,8.47-9.66,8.47h-13.82c-5.33,0-9.66-3.79-9.66-8.47v-14.3c0-4.68,4.32-8.47,9.66-8.47h13.82c5.33,0,9.66,3.79,9.66,8.47"/>
  <path id="Path_2324" data-name="Path 2324" class="cls-9" d="m123.97,8.47v14.3c0,4.68-4.32,8.47-9.66,8.47h-13.82c-5.33,0-9.66-3.79-9.66-8.47v-14.3c0-4.68,4.32-8.47,9.66-8.47h13.82c5.33,0,9.66,3.79,9.66,8.47"/>
  <path id="Path_2325" data-name="Path 2325" class="cls-5" d="m87.09,8.47v14.3c0,4.68-4.32,8.47-9.66,8.47h-13.82c-5.33,0-9.66-3.79-9.66-8.47v-14.3c0-4.68,4.32-8.47,9.66-8.47h13.82c5.33,0,9.66,3.79,9.66,8.47"/>
  <path id="Path_2326" data-name="Path 2326" class="cls-6" d="m50.21,8.47v14.3c0,4.68-4.32,8.47-9.66,8.47h-13.82c-5.33,0-9.66-3.79-9.66-8.47v-14.3C17.07,3.79,21.4,0,26.73,0h13.83c5.33,0,9.66,3.79,9.66,8.47"/>
  <path id="Path_2322-2" data-name="Path 2322" class="cls-8" d="m160.85,8.47v14.3c0,4.68-4.32,8.47-9.66,8.47h-13.82c-5.33,0-9.66-3.79-9.66-8.47v-14.3c0-4.68,4.32-8.47,9.66-8.47h13.82c5.33,0,9.66,3.79,9.66,8.47"/>
</svg>